<svg xmlns="http://www.w3.org/2000/svg" xmlns:xlink="http://www.w3.org/1999/xlink" viewBox="0,0,256,256" width="24px" height="24px" fill-rule="nonzero"><g fill="#ffffff" fill-rule="nonzero" stroke="none" stroke-width="1" stroke-linecap="butt" stroke-linejoin="miter" stroke-miterlimit="10" stroke-dasharray="" stroke-dashoffset="0" font-family="none" font-weight="none" font-size="none" text-anchor="none" style="mix-blend-mode: normal"><g transform="scale(10.66667,10.66667)"><path d="M5,3c-1.1,0 -2,0.9 -2,2v14c0,1.1 0.9,2 2,2h14c1.1,0 2,-0.9 2,-2v-14c0,-1.1 -0.9,-2 -2,-2zM5,5h14v14h-14zM9,7l0.00391,0.00977c0,0.079 -0.00209,9.98328 0.00391,9.98828c0.006,0.005 0.99219,-0.24805 1.99219,-0.24805v-4.875l2,4.875c1,0 1.98619,0.25305 1.99219,0.24805c0.006,-0.004 0.00391,-9.99023 0.00391,-9.99023l-1.99609,-0.00781v5.00195c-0.999,-2.501 -2,-5.00195 -2,-5.00195z"></path></g></g></svg>