<svg xmlns="http://www.w3.org/2000/svg" xmlns:xlink="http://www.w3.org/1999/xlink" viewBox="0,0,256,256" width="50px" height="50px" fill-rule="nonzero"><g fill="#ffffff" fill-rule="nonzero" stroke="none" stroke-width="1" stroke-linecap="butt" stroke-linejoin="miter" stroke-miterlimit="10" stroke-dasharray="" stroke-dashoffset="0" font-family="none" font-weight="none" font-size="none" text-anchor="none" style="mix-blend-mode: normal"><g transform="scale(5.12,5.12)"><path d="M11.5,2c-1.92578,0 -3.5,1.55078 -3.5,3.46875v38.4375c0,2.26172 1.85547,4.09375 4.125,4.09375h25.75c2.26953,0 4.125,-1.83203 4.125,-4.09375v-29.40625c0,-0.26562 -0.09375,-0.53125 -0.28125,-0.71875l-11.5,-11.5c-0.1875,-0.1875 -0.45312,-0.28125 -0.71875,-0.28125zM30,4.90625l9.09375,9.09375h-7.4375c-0.91797,0 -1.65625,-0.73828 -1.65625,-1.65625zM17,24h16v14h-16zM19,26v2h5v-2zM26,26v2h5v-2zM19,30v2h5v-2zM26,30v2h5v-2zM19,34v2h5v-2zM26,34v2h5v-2z"></path></g></g></svg>